<svg width="17" height="18" viewBox="0 0 17 18" fill="none" xmlns="http://www.w3.org/2000/svg">
<path d="M6.616 10.442C6.758 10.442 6.87667 10.3943 6.972 10.299C7.068 10.203 7.116 10.084 7.116 9.942V7.116C7.116 6.974 7.068 6.855 6.972 6.759C6.876 6.663 6.757 6.61533 6.615 6.616C6.473 6.61667 6.35433 6.66433 6.259 6.759C6.16367 6.85367 6.116 6.97267 6.116 7.116V9.942C6.116 10.084 6.16367 10.203 6.259 10.299C6.355 10.3943 6.474 10.442 6.616 10.442ZM2.327 9.327C1.637 8.98233 1.077 8.489 0.647 7.847C0.215667 7.20567 0 6.49833 0 5.725C0 4.693 0.362 3.81433 1.086 3.089C1.80867 2.363 2.68633 2 3.719 2C3.91567 2 4.11667 2.01667 4.322 2.05C4.52733 2.08333 4.72833 2.125 4.925 2.175L5.098 2.214L5.194 2.059C5.55933 1.453 6.02733 0.958333 6.598 0.575C7.16867 0.191667 7.80267 0 8.5 0C9.19733 0 9.83133 0.191667 10.402 0.575C10.9727 0.958333 11.447 1.453 11.825 2.059L11.921 2.213L12.075 2.175C12.2657 2.125 12.4563 2.08333 12.647 2.05C12.8377 2.01667 13.036 2 13.242 2C14.2873 2 15.175 2.36267 15.905 3.088C16.635 3.81333 17 4.69867 17 5.744C17 6.51733 16.7877 7.22167 16.363 7.857C15.939 8.49233 15.3757 8.981 14.673 9.323V14.231H2.327V9.327ZM10.405 10.442C10.5463 10.442 10.665 10.3943 10.761 10.299C10.857 10.2037 10.9047 10.0847 10.904 9.942V7.116C10.904 6.974 10.856 6.855 10.76 6.759C10.664 6.66367 10.545 6.616 10.403 6.616C10.261 6.616 10.1423 6.66367 10.047 6.759C9.95167 6.85433 9.904 6.97333 9.904 7.116V9.942C9.904 10.084 9.952 10.203 10.048 10.299C10.144 10.395 10.263 10.4427 10.405 10.442ZM3.327 13.231H13.673V8.679L14.485 8.283C14.9563 8.05367 15.3297 7.71433 15.605 7.265C15.8803 6.81567 16.0183 6.32167 16.019 5.783C16.019 5.00367 15.743 4.345 15.191 3.807C14.639 3.269 13.9767 3 13.204 3C13.0333 3 12.87 3.01333 12.714 3.04C12.5573 3.06667 12.402 3.10533 12.248 3.156L11.458 3.384L10.971 2.565C10.699 2.105 10.35 1.729 9.924 1.437C9.498 1.145 9.02667 0.999333 8.51 1C7.99333 1.00067 7.52167 1.14667 7.095 1.438C6.66833 1.72933 6.31933 2.10533 6.048 2.566L5.561 3.385L4.746 3.155C4.59267 3.10967 4.43667 3.07233 4.278 3.043C4.11933 3.01367 3.95667 2.99933 3.79 3C3.01667 3 2.35833 3.26767 1.815 3.803C1.27167 4.33833 1 4.99333 1 5.768C1 6.30333 1.137 6.79433 1.411 7.241C1.685 7.68767 2.05967 8.035 2.535 8.283L3.327 8.679V13.231ZM2.327 14.231H3.327V16.384C3.327 16.564 3.38467 16.7117 3.5 16.827C3.61533 16.9423 3.76267 17 3.942 17H13.058C13.2373 17 13.3847 16.9423 13.5 16.827C13.6153 16.7117 13.673 16.564 13.673 16.384V14.231H14.673V16.384C14.673 16.8287 14.515 17.209 14.199 17.525C13.883 17.841 13.5027 17.9993 13.058 18H3.942C3.498 18 3.118 17.8417 2.802 17.525C2.486 17.2083 2.32767 16.8283 2.327 16.385V14.231Z" fill="white"/>
</svg>
