<svg width="30" height="30" viewBox="0 0 30 30" fill="none" xmlns="http://www.w3.org/2000/svg">
<rect width="30" height="30" rx="15" fill="#109941"/>
<g clip-path="url(#clip0_230_4511)">
<path d="M17.2616 19L17.3772 21.3437L15.0065 19.6963L12.6225 21.3453L12.7382 19H11.737L11.5644 22.5H12.711L15.0052 20.9131L17.2887 22.5H18.4354L18.2628 19H17.2616ZM19.9814 11.8411L19.9129 10.3394L18.6468 9.52918L17.8364 8.26296L16.3347 8.19421L14.9999 7.50293L13.6651 8.19437L12.1634 8.26312L11.353 9.52918L10.0869 10.3394L10.0184 11.8411L9.3269 13.1759L10.0184 14.5107L10.0871 16.0124L11.353 16.8226L12.1633 18.0889L13.665 18.1575L14.9999 18.8489L16.3347 18.1575L17.8364 18.0889L18.6467 16.8226L19.9128 16.0125L19.9814 14.5109L20.6729 13.176L19.9814 11.8411ZM18.9925 14.2457L18.9374 15.4493L17.9226 16.0987L17.2732 17.1135L16.0696 17.1685L14.9999 17.7227L13.9301 17.1685L12.7265 17.1135L12.0771 16.0987L11.0624 15.4493L11.0074 14.2457L10.453 13.1759L11.0073 12.1063L11.0624 10.9025L12.0771 10.2531L12.7265 9.23834L13.9301 9.18334L14.9999 8.62915L16.0697 9.1833L17.2733 9.2383L17.9227 10.2531L18.9374 10.9025L18.9924 12.1061L19.5468 13.1759L18.9925 14.2457Z" fill="white"/>
</g>
<defs>
<clipPath id="clip0_230_4511">
<rect width="16" height="16" fill="white" transform="translate(7 7)"/>
</clipPath>
</defs>
</svg>
