<svg width="48" height="48" viewBox="0 0 48 48" fill="none" xmlns="http://www.w3.org/2000/svg">
<path d="M7.48403 37.11C9.88403 40 14.348 40 23.28 40H24.72C33.652 40 38.118 40 40.518 37.11M7.48403 37.11C5.08403 34.218 5.90803 29.83 7.55403 21.05C8.72403 14.81 9.30803 11.688 11.53 9.844M40.518 37.11C42.918 34.218 42.094 29.83 40.448 21.05C39.278 14.81 38.692 11.688 36.47 9.844M36.47 9.844C34.25 8 31.072 8 24.722 8H23.278C16.928 8 13.752 8 11.53 9.844" stroke="#D32E12" stroke-width="3"/>
<path d="M18.3401 16C18.7533 17.1711 19.5196 18.1851 20.5333 18.9024C21.547 19.6197 22.7583 20.0049 24.0001 20.0049C25.2419 20.0049 26.4532 19.6197 27.4669 18.9024C28.4806 18.1851 29.2469 17.1711 29.6601 16" stroke="#D32E12" stroke-width="3" stroke-linecap="round"/>
</svg>
