<svg width="48" height="48" viewBox="0 0 48 48" fill="none" xmlns="http://www.w3.org/2000/svg">
<path d="M12 34.0001H36M34 42.0001C34.5305 42.0001 35.0392 41.7893 35.4143 41.4143C35.7893 41.0392 36 40.5305 36 40.0001V29.3001C36 28.3861 36.632 27.6121 37.454 27.2181C39.156 26.4062 40.5164 25.0192 41.2953 23.3018C42.0741 21.5845 42.2213 19.6473 41.7109 17.832C41.2004 16.0167 40.0652 14.4401 38.5054 13.3803C36.9457 12.3206 35.0617 11.8459 33.186 12.0401C32.4136 10.2445 31.1318 8.71465 29.4992 7.63973C27.8666 6.56482 25.9547 5.99194 24 5.99194C22.0453 5.99194 20.1335 6.56482 18.5009 7.63973C16.8683 8.71465 15.5865 10.2445 14.814 12.0401C12.9392 11.8473 11.0565 12.3227 9.49791 13.3823C7.9393 14.442 6.80486 16.0179 6.29461 17.8323C5.78436 19.6466 5.93106 21.5828 6.70885 23.2996C7.48664 25.0163 8.84557 26.4033 10.546 27.2161C11.368 27.6121 12 28.3861 12 29.2981V40.0001C12 40.5305 12.2108 41.0392 12.5858 41.4143C12.9609 41.7893 13.4696 42.0001 14 42.0001H34Z" stroke="#D32E12" stroke-width="4" stroke-linecap="round" stroke-linejoin="round"/>
</svg>
