<svg width="48" height="48" viewBox="0 0 48 48" fill="none" xmlns="http://www.w3.org/2000/svg">
<path d="M30.7851 36.0001L31.1318 43.0312L24.0197 38.0888L16.8678 43.0359L17.2148 36.0001H14.2111L13.6935 46.5001H17.1333L24.0158 41.7394L30.8664 46.5001H34.3065L33.7888 36.0001H30.7851ZM38.9446 14.5233L38.7389 10.0182L34.9406 7.58754L32.5095 3.78888L28.0043 3.58263L24 1.50879L19.9956 3.5831L15.4905 3.78935L13.0593 7.58754L9.26105 10.0182L9.05536 14.5233L6.98096 18.5277L9.05536 22.5322L9.26161 27.0372L13.0593 29.4679L15.4901 33.2666L19.9952 33.4724L24 35.5467L28.0043 33.4724L32.5095 33.2666L34.9402 29.4679L38.7388 27.0376L38.9446 22.5326L41.019 18.5281L38.9446 14.5233ZM35.9777 21.7372L35.8125 25.3479L32.7679 27.296L30.8198 30.3406L27.209 30.5056L24 32.168L20.7905 30.5056L17.1797 30.3406L15.2316 27.296L12.1875 25.3479L12.0226 21.7372L10.3593 18.5277L12.0222 15.3188L12.1875 11.7076L15.2316 9.75945L17.1797 6.71501L20.7905 6.55001L24 4.88745L27.2094 6.54991L30.8202 6.71491L32.7683 9.75935L35.8125 11.7076L35.9774 15.3184L37.6406 18.5277L35.9777 21.7372Z" fill="#D32E12"/>
</svg>
