<svg width="48" height="48" viewBox="0 0 48 48" fill="none" xmlns="http://www.w3.org/2000/svg">
<path fill-rule="evenodd" clip-rule="evenodd" d="M28.358 5.89611L37.498 11.1761C38.8227 11.941 39.923 13.0409 40.6883 14.3654C41.4536 15.6899 41.857 17.1924 41.858 18.7221V29.2781C41.8573 30.8082 41.4541 32.3111 40.6888 33.636C39.9235 34.9609 38.823 36.0611 37.498 36.8261L28.358 42.1041C27.0328 42.8687 25.5299 43.2712 24 43.2712C22.4701 43.2712 20.9671 42.8687 19.642 42.1041L10.502 36.8241C9.1772 36.0593 8.07695 34.9594 7.31166 33.6349C6.54637 32.3103 6.14298 30.8078 6.14197 29.2781V18.7221C6.14197 15.6081 7.80397 12.7321 10.502 11.1741L19.642 5.89611C20.9671 5.13151 22.4701 4.729 24 4.729C25.5299 4.729 27.0328 5.13151 28.358 5.89611ZM26.358 9.36011C25.6409 8.94658 24.8277 8.7289 24 8.7289C23.1722 8.7289 22.359 8.94658 21.642 9.36011L12.502 14.6401C11.7856 15.0537 11.1904 15.6484 10.7762 16.3644C10.362 17.0805 10.1433 17.8929 10.142 18.7201V29.2801C10.142 30.9621 11.042 32.5201 12.502 33.3601L21.642 38.6401C23.102 39.4801 24.898 39.4801 26.358 38.6401L35.498 33.3601C36.2144 32.9465 36.8095 32.3519 37.2237 31.6358C37.6379 30.9197 37.8566 30.1073 37.858 29.2801V18.7201C37.858 17.0381 36.958 15.4801 35.498 14.6401L26.358 9.36011Z" fill="#D32E12"/>
<path fill-rule="evenodd" clip-rule="evenodd" d="M20.998 23.5922L9.39197 17.7882L11.18 14.2122L22.786 20.0142C23.55 20.3962 24.45 20.3962 25.214 20.0142L36.82 14.2122L38.61 17.7882L27.004 23.5922C26.0715 24.058 25.0434 24.3005 24.001 24.3005C22.9586 24.3005 21.9305 24.058 20.998 23.5922Z" fill="#D32E12"/>
<path fill-rule="evenodd" clip-rule="evenodd" d="M26 22.8562V41.1422H22V22.8562H26Z" fill="#D32E12"/>
</svg>
